<svg width="22" height="22" viewBox="0 0 22 22" fill="none" xmlns="http://www.w3.org/2000/svg">
<path d="M5.95837 9.16668V7.33334C5.95837 4.29918 6.79865 1.83334 11 1.83334C15.2014 1.83334 16.0417 4.29918 16.0417 7.33334V9.16668" stroke="white" stroke-width="1.375" stroke-linecap="round" stroke-linejoin="round"/>
<path d="M15.2015 20.1667H6.79868C3.43757 20.1667 2.59729 19.25 2.59729 15.5833V13.75C2.59729 10.0833 3.43757 9.16666 6.79868 9.16666H15.2015C18.5626 9.16666 19.4028 10.0833 19.4028 13.75V15.5833C19.4028 19.25 18.5626 20.1667 15.2015 20.1667Z" fill="white" stroke="white" stroke-width="1.375" stroke-linecap="round" stroke-linejoin="round"/>
<path d="M11 16.9583C12.1602 16.9583 13.1007 15.9323 13.1007 14.6667C13.1007 13.401 12.1602 12.375 11 12.375C9.8398 12.375 8.89929 13.401 8.89929 14.6667C8.89929 15.9323 9.8398 16.9583 11 16.9583Z" fill="#262352" stroke="white" stroke-width="1.375" stroke-linecap="round" stroke-linejoin="round"/>
</svg>
